/* XPM */
static const char *convert_xpm[] = {
/* columns rows colors chars-per-pixel */
"22 22 222 2",
"   c black",
".  c #7C0000",
"X  c #7D0000",
"o  c #830000",
"O  c #840000",
"+  c #850802",
"@  c #840804",
"#  c #840905",
"$  c #850A05",
"%  c #8B0000",
"&  c #8E0000",
"*  c #8D0A0C",
"=  c #930000",
"-  c #970000",
";  c #940A0C",
":  c #9C0000",
">  c #9F0000",
",  c #9D0A0C",
"<  c #921900",
"1  c #961909",
"2  c #96190B",
"3  c #951A0D",
"4  c #8C201F",
"5  c #9F2C00",
"6  c #952F2D",
"7  c #A50000",
"8  c #A50A0C",
"9  c #A80000",
"0  c #AC0000",
"q  c #AD0000",
"w  c #A61707",
"e  c #B00000",
"r  c #B30600",
"t  c #B40000",
"y  c #B60000",
"u  c #B70000",
"i  c #BA0000",
"p  c #BC0000",
"a  c #BF0000",
"s  c #B91503",
"d  c #A12E16",
"f  c #A42A10",
"g  c #AE351A",
"h  c #AD361C",
"j  c #B22609",
"k  c #BD3216",
"l  c #B8371E",
"z  c #B74F00",
"x  c #B85000",
"c  c #B95000",
"v  c #BB5200",
"b  c #BC5300",
"n  c #BD5400",
"m  c #BF5500",
"M  c #B94725",
"N  c #AD5F5D",
"B  c #B56D60",
"V  c #C00000",
"C  c #C50000",
"Z  c #C70000",
"A  c #CB0600",
"S  c #CD0000",
"D  c #CB1300",
"F  c #D00000",
"G  c #D60000",
"H  c #D80000",
"J  c #D91700",
"K  c #DD1404",
"L  c #C02202",
"P  c #C2250A",
"I  c #C22E0F",
"U  c #CD2103",
"Y  c #D93C16",
"T  c #E00000",
"R  c #E30600",
"E  c #E30700",
"W  c #E71700",
"Q  c #E81D00",
"!  c #E32300",
"~  c #E5300B",
"^  c #C9471A",
"/  c #C25700",
"(  c #C35800",
")  c #C55A00",
"_  c #C65A00",
"`  c #C85C00",
"'  c #CC5F00",
"]  c #D65D29",
"[  c #D45337",
"{  c #C76504",
"}  c #C86700",
"|  c #CF6200",
" . c #D26400",
".. c #D36C0F",
"X. c #D67809",
"o. c #DE6025",
"O. c #DE632B",
"+. c #D66435",
"@. c #DE6833",
"#. c #E74C16",
"$. c #E84C1C",
"%. c #E75006",
"&. c #F85F08",
"*. c #EE610E",
"=. c #F66002",
"-. c #FB6007",
";. c #FE6302",
":. c #FF6B0E",
">. c #F16914",
",. c #F56B1E",
"<. c #F86A11",
"1. c #FB6C13",
"2. c #F86C14",
"3. c #FF6D12",
"4. c #F96C1A",
"5. c #FF751E",
"6. c #EF702A",
"7. c #E67237",
"8. c #EA7039",
"9. c #F26B27",
"0. c #F47729",
"q. c #F7762A",
"w. c #F4792C",
"e. c #F87625",
"r. c #FF7A26",
"t. c #F8782D",
"y. c #FF7E2D",
"u. c #F77B31",
"i. c #F77D37",
"p. c #DF6E53",
"a. c #DA744C",
"s. c #DE7E55",
"d. c #E56646",
"f. c #E97344",
"g. c #E87C54",
"h. c #B7817C",
"j. c #D98726",
"k. c #DF8C23",
"l. c #E19300",
"z. c #E29415",
"x. c #F58138",
"c. c #FF8031",
"v. c #FF8132",
"b. c #FF8133",
"n. c #F88238",
"m. c #FF8538",
"M. c #FF863A",
"N. c #FF863C",
"B. c #EEAC00",
"V. c #E6A713",
"C. c #EDAC21",
"Z. c #DD8562",
"A. c #DE8A6A",
"S. c #F78340",
"D. c #F58844",
"F. c #FF8A41",
"G. c #FF8C47",
"H. c #FC8D48",
"J. c #FF9049",
"K. c #FF904A",
"L. c #FF9350",
"P. c #FF9C5E",
"I. c #FF9D5E",
"U. c #FF9D5F",
"Y. c #E78461",
"T. c #F69968",
"R. c #E8B076",
"E. c #F8A774",
"W. c #FFAA75",
"Q. c #FFAA76",
"!. c #FBCB0D",
"~. c #FFDA3D",
"^. c #FFDC5D",
"/. c #FFE350",
"(. c #FFE86A",
"). c #FFE876",
"_. c #FFEB7E",
"`. c #A38897",
"'. c #AC8E9C",
"]. c #DD9881",
"[. c #DD9B9C",
"{. c #D5BDB7",
"}. c #E39B9C",
"|. c #F7BF9D",
" X c #FFBB91",
".X c #FABE98",
"XX c #FABE99",
"oX c #F2BFA2",
"OX c #F8D28A",
"+X c #E6C8A4",
"@X c #EBC7B4",
"#X c #F0C4AA",
"$X c #F4C4A8",
"%X c #F5C7AD",
"&X c #F7C9AE",
"*X c #F9C7A8",
"=X c #FBCAAA",
"-X c #FBCCAE",
";X c #FBD1B7",
":X c #FBD3BA",
">X c #FFEE92",
",X c #FFED9B",
"<X c #FCEEBF",
"1X c #FFF1A6",
"2X c #FFF0AE",
"3X c #FFF4B9",
"4X c #C2C2CF",
"5X c #DFC9C2",
"6X c #D1D1DA",
"7X c #D1D1DB",
"8X c #DDDDE4",
"9X c #DEDEE5",
"0X c #FCDAC4",
"qX c #F7EAD0",
"wX c #FFF7CC",
"eX c #E6E6EC",
"rX c #E7E7EC",
"tX c #EDEDF1",
"yX c #FFF7E1",
"uX c #F0F0F3",
"iX c #F3F3F6",
"pX c None",
/* pixels */
"pXpXpXpXpXpXpXpXpXpXpXpXpXpXpXpXpXT E W Q E ",
"pXpXpXpXpXpXpXpXpXpXpXpXpXpXpXG H ~ T.=X0X! ",
"pXpXpXpXpXpXpXpXpXpXpXpXpXpXS F $.XX-X:X;XJ ",
"pXpXpXpXpXpXpXpXpXpXpXpXpXZ Z d.|.&X*X-XE.A ",
"pXpXpXpXpXpXpXpXpXpXpXpXi a }.iXtXrX%XXXY a ",
"pXpXpXpXpXpXpXpXpXpXpXu u p.$X#X@X9XoX8.i i ",
"pXpXpXpXpXpX0 0 0 0 0 0 [.uXeX9X5X6Xa.r q pX",
"pXpXpXpXpX7 P [ f.g.Y.%.0.x.D.6X{.'.8 9 pXpX",
"pXpXpXpX: I N.T.W. XG.1.,.9.i.4Xh., > pXpXpX",
"pXpXpX= k v.M.H.I.c.;.&.K #.w.`.; - pXpXpXpX",
"pXpX% l J.M.b.N.y.3.-.D U >.*.* & pXpXpXpXpX",
"pXO O O O O o ^ r.4.s j =.1.Z.o pXpXpXpXpXpX",
"pXpXpXpXpX. g N.w.w j 1.:.Q.].. pXpXpXpXpXpX",
"pXpXpXpX .< h n.2 f e.5.K.Q.A.. pXpXpXpXpXpX",
"pXpXpX| ..R.N $ d n.6.u.H.I.Z.. pXpXpXpXpXpX",
"pXpX| k.<XqX6 4 M 7.$ o.M.H.] . pXpXpXpXpXpX",
"pX` X.,X3X+XB yX5 $ . O.c.q.+ . pXpXpXpXpXpX",
"pX) C.>X1X3XwXOX) . . @.i.2 . pXpXpXpXpXpXpX",
"pX/ ~._.>X1X2Xj./ pX. +.3 . pXpXpXpXpXpXpXpX",
"n { /.(.).^.z.n pXpX. $ . pXpXpXpXpXpXpXpXpX",
"c V.!.B.l.} n n pXpX. . pXpXpXpXpXpXpXpXpXpX",
"c x x c c c pXpXpXpXpXpXpXpXpXpXpXpXpXpXpXpX"
};
