/* XPM */
static const char *exit_xpm[] = {
/* columns rows colors chars-per-pixel */
"16 16 121 2",
"   c #323232",
".  c #633232",
"X  c #653232",
"o  c #8D3232",
"O  c #8E3232",
"+  c #8F3232",
"@  c #903232",
"#  c #913232",
"$  c #923232",
"%  c #933232",
"&  c #943232",
"*  c #953232",
"=  c #963232",
"-  c #983232",
";  c #993232",
":  c #9B3232",
">  c #9C3232",
",  c #9D3232",
"<  c #AE3434",
"1  c #AE3737",
"2  c #AE3A3A",
"3  c #AE3D3D",
"4  c #B73232",
"5  c #BD3838",
"6  c #BE3D3D",
"7  c #C63232",
"8  c #C73232",
"9  c #C63737",
"0  c #C13939",
"q  c #C23A3A",
"w  c #C53B3B",
"e  c #C93232",
"r  c #CB3232",
"t  c #CA3434",
"y  c #CC3232",
"u  c #CE3232",
"i  c #C93C3C",
"p  c #D03232",
"a  c #D13232",
"s  c #D33232",
"d  c #D43232",
"f  c #DA3838",
"g  c #DA3939",
"h  c #DA3B3B",
"j  c #DA3C3C",
"k  c #EB3232",
"l  c #EC3232",
"z  c #EF3232",
"x  c #EE3434",
"c  c #F53232",
"v  c #F53434",
"b  c #F53C3C",
"n  c #F93232",
"m  c #FE3333",
"M  c #FE3434",
"N  c #EB4747",
"B  c #F64040",
"V  c #F54A4A",
"C  c #F94040",
"Z  c #FE4040",
"A  c #FF4343",
"S  c #FF4444",
"D  c #F65151",
"F  c #F65252",
"G  c #F55858",
"H  c #F75959",
"J  c #F95151",
"K  c #FE5454",
"L  c #FF5555",
"P  c #FF5D5D",
"I  c #F66161",
"U  c #F46464",
"Y  c #F06C6C",
"T  c #F16C6C",
"R  c #F46F6F",
"E  c #F56F6F",
"W  c #F86161",
"Q  c #F86262",
"!  c #FB6262",
"~  c #FF6161",
"^  c #FE6262",
"/  c #FF6767",
"(  c #FA6F6F",
")  c #FF7272",
"_  c #FF7979",
"`  c #FF7E7E",
"'  c #F19191",
"]  c #F49191",
"[  c #F59494",
"{  c #F69494",
"}  c #F99494",
"|  c #FD9191",
" . c #FF9191",
".. c #FF9696",
"X. c #FF9999",
"o. c #FF9E9E",
"O. c #F7A7A7",
"+. c #F9A7A7",
"@. c #FFB3B3",
"#. c #FFB4B4",
"$. c #F8BBBB",
"%. c #F9BBBB",
"&. c #FFC8C8",
"*. c #FFCECE",
"=. c #FFD2D2",
"-. c #FFD4D4",
";. c #FFD7D7",
":. c #FFE6E6",
">. c #FEECEC",
",. c #FFEDED",
"<. c #FFEEEE",
"1. c #FFF0F0",
"2. c #FFF2F2",
"3. c #FEF5F5",
"4. c #FFF5F5",
"5. c #FFF7F7",
"6. c #FFF9F9",
"7. c #FFFBFB",
"8. c #FFFCFC",
"9. c gray100",
"0. c None",
/* pixels */
"0.0.0.0.s d s y y e 8 4   0.0.0.",
"0.0.0.s h ] [ [ [ [ ' i ,   0.0.",
"0.0.s h $.:.:.:.:.:.:.$.w ;   0.",
"0.s h +.*.;.*.*.*.*.=.*.O.0 *   ",
"s f } @.;.7.&.#.#.&.7.;.#.[ 5 # ",
"s U ....5.7.7.#.#.7.7.4. .( N , ",
"s G `  . .2.7.7.5.7.>.H c c k * ",
"y V P P P ` 2.7.7.2.F c c c k * ",
"e b A A S ) 5.7.7.5.U c c c k # ",
"e c m m ^ 5.7.>.2.7.4.! n n z # ",
"8 v M A 5.7.2.K K >.7.4.A M x + ",
"4 t C A ..2.P S A P 2...A B < X ",
"  ; 9 J K P K L K K P K V < .   ",
"0.  ; 0 ! / / / / / / U 3 .     ",
"0.0.  * 6 Y E E E E Y 3 .     0.",
"0.0.0.  % : * % % o o X     0.0."
};
